<svg width="95" height="95" viewBox="0 0 95 95" fill="none" xmlns="http://www.w3.org/2000/svg">
<path d="M47.5 0C73.7334 5.61552e-05 95 21.2666 95 47.5C94.9999 73.7334 73.7334 94.9999 47.5 95C21.2666 95 5.61625e-05 73.7334 0 47.5C0 41.1311 1.25655 35.056 3.53027 29.5059C2.44888 32.8706 1.86333 36.4576 1.86328 40.1816C1.86328 59.4342 17.4701 75.042 36.7227 75.042C55.9752 75.042 71.583 59.4342 71.583 40.1816C71.5828 20.9293 55.9751 5.32227 36.7227 5.32227C28.3227 5.32227 20.6163 8.2927 14.5977 13.2412C23.1339 5.04084 34.7283 0 47.5 0Z" fill="#FEEF10"/>
<path d="M23.6837 38.3661L14.3093 43.6413L16.4027 33.0481L8.51562 25.7152L19.1846 24.4432L23.6837 14.6357L28.1828 24.4432L38.8517 25.7152L30.9646 33.0481L33.058 43.6413L23.6837 38.3661Z" fill="#79A34C"/>
<path d="M81.1627 54.5981C81.1627 55.6262 81.1289 56.3942 81.0613 56.9021C80.9486 57.6949 80.7289 58.4195 80.4021 59.076H80.0302C79.8499 58.7416 79.7598 58.1718 79.7598 57.3666V53.2789L79.1006 45.0476C79.202 44.6389 79.2527 44.2177 79.2527 43.7841C79.2527 43.7098 79.2471 43.5983 79.2358 43.4497C79.2358 43.2887 79.2358 43.171 79.2358 43.0967C79.2358 42.3906 79.5851 41.4616 80.2838 40.3096H80.6895L81.1627 54.5981Z" fill="#4B7A35"/>
<path d="M78.8792 41.1082C78.8792 41.133 78.7271 41.4117 78.4228 41.9444C78.096 42.5142 77.9101 43.0097 77.865 43.4308L78.744 53.037C78.744 54.5854 78.6538 55.7498 78.4735 56.5302C78.1355 57.8928 77.4763 58.6979 76.4959 58.9457C76.1466 59.0324 75.3127 59.0757 73.9943 59.0757H72.9463V56.3815H74.2647C75.2902 56.3815 76.0282 56.27 76.479 56.0471C77.2002 55.7002 77.5608 55.019 77.5608 54.0032L76.0395 40.941C76.1184 40.4579 76.248 40.1111 76.4283 39.9005C76.6875 39.6032 76.9016 39.2254 77.0706 38.7671H77.4932C78.4172 40.1173 78.8792 40.8977 78.8792 41.1082Z" fill="#4B7A35"/>
<path d="M75.6653 59.0756H73.5524C73.1355 59.0756 72.634 58.8898 72.0481 58.5182C71.9241 58.4315 71.6537 58.2457 71.2367 57.9608C71.2367 59.249 70.8705 59.8932 70.1381 59.8932C69.5972 59.8932 68.9943 59.6578 68.3294 59.1871C68.0477 58.9765 67.5181 58.5182 66.7406 57.8121C66.1997 57.329 65.8335 57.0875 65.6419 57.0875C65.5067 57.2238 65.1348 57.6759 64.5263 58.4439C64.177 58.865 63.8333 59.0756 63.4952 59.0756H61.2979V56.3814H62.4472C63.2022 56.3814 63.6755 56.3505 63.8671 56.2885C64.1826 56.1894 64.5319 55.9231 64.9151 55.4896C65.3433 55.0065 65.9912 54.2694 66.8589 53.2785C67.366 52.5105 67.8618 52.1265 68.3464 52.1265C69.0675 52.1265 69.7718 52.4919 70.4592 53.2227C70.8536 53.681 71.4677 54.3623 72.3016 55.2666C73.0228 56.0098 73.8116 56.3814 74.668 56.3814H75.6653V59.0756ZM69.3943 55.9912C69.3943 55.3595 69.2366 54.8207 68.921 54.3747C68.6844 54.0155 68.4928 53.8359 68.3464 53.8359C68.1548 53.8359 67.8956 54.0527 67.5688 54.4862C67.4111 54.6968 67.2646 54.9074 67.1293 55.1179C67.7491 55.8736 68.4816 56.4372 69.3267 56.8088C69.3718 56.4619 69.3943 56.1894 69.3943 55.9912Z" fill="#4B7A35"/>
<path d="M64.1856 59.0757H61.9375C61.6445 59.0757 61.3234 58.8156 60.974 58.2953C60.636 57.7751 60.4388 57.5149 60.3824 57.5149C60.3148 57.5149 60.0556 57.7565 59.6049 58.2396C59.1654 58.7227 58.6809 58.9642 58.1512 58.9642C57.5315 58.9642 57.0075 58.7227 56.5793 58.2396C56.1511 57.7565 55.8863 57.5149 55.7848 57.5149C55.751 57.5149 55.4919 57.7751 55.0073 58.2953C54.534 58.8156 53.9988 59.0757 53.4015 59.0757C52.6127 59.0757 51.9254 58.8156 51.3394 58.2953C50.7534 57.7751 50.4661 57.5149 50.4773 57.5149C49.1702 58.5554 48.3307 59.0757 47.9588 59.0757H46.9277V56.3815H48.8378C49.2096 56.3815 49.5984 55.9975 50.0041 55.2295C50.421 54.4615 50.7309 54.0775 50.9337 54.0775C51.0689 54.0775 51.2042 54.2633 51.3394 54.6349C51.531 55.118 51.7225 55.4587 51.9141 55.6569C52.2634 56.0285 52.7592 56.2143 53.4015 56.2143C54.0551 56.2143 54.5622 55.9046 54.9228 55.2853C55.1482 54.9013 55.4355 54.412 55.7848 53.8174C55.9764 53.9908 56.213 54.3562 56.4948 54.9136C56.923 55.7807 57.4751 56.2143 58.1512 56.2143C58.7034 56.2143 59.1823 55.8613 59.588 55.1552C59.9937 54.4367 60.2979 54.0775 60.5007 54.0775C60.7148 54.0775 60.9571 54.4615 61.2276 55.2295C61.498 55.9975 61.7966 56.3815 62.1234 56.3815H64.1856V59.0757Z" fill="#4B7A35"/>
<path d="M49.9006 59.0758H47.9906C47.2469 59.0758 46.6328 58.5741 46.1482 57.5708L45.3707 55.9357C45.2016 56.1463 44.9256 56.6356 44.5424 57.4036C43.9903 58.5184 43.3705 59.0758 42.6831 59.0758H40.0801V56.3816H41.8549C43.0606 56.3816 43.872 55.8614 44.2889 54.8209C44.5593 54.1396 44.6946 53.0247 44.6946 51.4763C44.6946 47.2647 44.5143 44.1927 44.1537 42.2603C44.1086 42.0498 44.041 41.7401 43.9508 41.3313C44.1875 40.65 44.7115 39.8882 45.5228 39.0459L45.6242 39.9563C45.8158 41.864 45.9116 43.3628 45.9116 44.4529V47.4443C45.9116 48.3982 45.9116 49.2467 45.9116 49.9899L45.8778 52.1267C45.8778 53.7741 45.9848 54.8209 46.1989 55.2668C46.537 55.9729 47.3596 56.3445 48.6667 56.3816L49.9006 56.4002V59.0758Z" fill="#4B7A35"/>
<path d="M42.8167 59.0756H40.7038C40.2869 59.0756 39.7854 58.8898 39.1994 58.5182C39.0755 58.4315 38.805 58.2457 38.3881 57.9608C38.3881 59.249 38.0219 59.8932 37.2894 59.8932C36.7485 59.8932 36.1457 59.6578 35.4808 59.1871C35.1991 58.9765 34.6695 58.5182 33.8919 57.8121C33.3511 57.329 32.9848 57.0875 32.7933 57.0875C32.658 57.2238 32.2862 57.6759 31.6777 58.4439C31.3283 58.865 30.9847 59.0756 30.6466 59.0756H28.4492V56.3814H29.5986C30.3536 56.3814 30.8269 56.3505 31.0185 56.2885C31.334 56.1894 31.6833 55.9231 32.0664 55.4896C32.4946 55.0065 33.1426 54.2694 34.0103 53.2785C34.5174 52.5105 35.0132 52.1265 35.4977 52.1265C36.2189 52.1265 36.9232 52.4919 37.6106 53.2227C38.005 53.681 38.6191 54.3623 39.453 55.2666C40.1742 56.0098 40.963 56.3814 41.8194 56.3814H42.8167V59.0756ZM36.5457 55.9912C36.5457 55.3595 36.3879 54.8207 36.0724 54.3747C35.8358 54.0155 35.6442 53.8359 35.4977 53.8359C35.3062 53.8359 35.047 54.0527 34.7202 54.4862C34.5624 54.6968 34.4159 54.9074 34.2807 55.1179C34.9005 55.8736 35.6329 56.4372 36.4781 56.8088C36.5232 56.4619 36.5457 56.1894 36.5457 55.9912Z" fill="#4B7A35"/>
<path d="M31.3373 59.0756H29.2245C29.078 59.5463 28.8582 60.2524 28.5652 61.1938C28.0131 62.767 27.2863 64.0924 26.3848 65.1701C25.1903 66.5946 23.8437 67.3068 22.345 67.3068C21.1843 67.3068 19.956 66.6008 18.6602 65.1887V64.7427C18.694 64.7427 18.739 64.7179 18.7954 64.6684C18.8405 64.6312 18.8799 64.6127 18.9137 64.6127C19.556 64.9967 20.435 65.1887 21.5505 65.1887C23.0718 65.1887 24.3846 64.6374 25.4889 63.535C26.2777 62.7298 27.1116 61.4416 27.9905 59.6702V59.1871C27.2919 59.1004 26.5989 59.0137 25.9115 58.927C25.1114 58.704 24.7114 58.0661 24.7114 57.0132C24.7114 56.2452 24.9987 55.2728 25.5734 54.096C26.2045 52.783 26.8299 52.1265 27.4497 52.1265C28.1145 52.1265 28.7174 53.1732 29.2583 55.2666C29.3146 55.5143 29.3991 55.8798 29.5118 56.3628H31.3373V59.0756ZM27.8046 56.2142V55.7869C27.7145 55.6506 27.6299 55.5081 27.5511 55.3595C27.4722 55.2728 27.3482 55.1303 27.1792 54.9321H26.4186L26.2665 56.2142H27.8046Z" fill="#4B7A35"/>
<path d="M14.9737 50.1754C14.9737 50.4479 14.6356 51.1292 13.9595 52.2192C13.6778 52.0087 13.3679 51.7609 13.0299 51.476C12.4326 50.9929 12.134 50.6709 12.134 50.5098C12.134 50.4355 12.1847 50.3116 12.2861 50.1382C12.6017 49.5932 12.8552 49.0048 13.0468 48.373H13.4355C13.5482 48.4845 13.8976 48.8066 14.4835 49.3392C14.8103 49.6241 14.9737 49.9029 14.9737 50.1754ZM20.2812 60.5062C20.2812 61.4105 20.1234 62.3457 19.8079 63.3119C18.8276 66.26 16.8443 67.7341 13.8581 67.7341C12.4045 67.7341 11.2269 67.3067 10.3254 66.452C9.36759 65.5477 8.88867 64.309 8.88867 62.7359C8.88867 61.1751 9.49154 59.4285 10.6973 57.4961C10.7987 57.5209 10.9001 57.5457 11.0015 57.5705C11.0804 57.6448 11.1199 57.781 11.1199 57.9792C11.1199 58.1403 10.9452 58.7163 10.5959 59.7072C10.2465 60.6982 10.0719 61.2866 10.0719 61.4724C10.0719 62.2404 10.3592 62.9217 10.9339 63.5163C11.6326 64.2471 12.6073 64.6125 13.8581 64.6125C14.985 64.6125 16.0893 64.3586 17.1711 63.8507C18.5684 63.219 19.267 62.3767 19.267 61.3237C19.267 60.7168 19.0867 59.9116 18.7261 58.9083C18.5233 58.3508 18.1853 57.5333 17.712 56.4556C17.3514 55.6381 17.1711 55.1798 17.1711 55.0807C17.1711 54.9816 17.2838 54.6099 17.5091 53.9658C17.7345 53.3217 17.8866 52.9191 17.9655 52.7581C18.1909 52.9687 18.4219 53.2721 18.6585 53.6685C19.7403 55.4523 20.2812 57.7315 20.2812 60.5062Z" fill="#4B7A35"/>
</svg>
